<svg width="381" height="381" viewBox="0 0 381 381" fill="none" xmlns="http://www.w3.org/2000/svg">
<circle cx="190" cy="190" r="181" fill="#D9D9D9"/>
<path d="M108.46 156.54V227H84.93V219.98C80.3367 225.44 73.4034 228.17 64.13 228.17C57.7167 228.17 51.8667 226.697 46.58 223.75C41.38 220.717 37.22 216.427 34.1 210.88C31.0667 205.333 29.55 198.92 29.55 191.64C29.55 184.36 31.0667 177.99 34.1 172.53C37.22 166.983 41.38 162.737 46.58 159.79C51.8667 156.843 57.7167 155.37 64.13 155.37C72.45 155.37 78.9934 157.797 83.76 162.65V156.54H108.46ZM69.33 208.54C73.6634 208.54 77.2167 207.067 79.99 204.12C82.7634 201.087 84.15 196.927 84.15 191.64C84.15 186.44 82.7634 182.367 79.99 179.42C77.2167 176.473 73.6634 175 69.33 175C64.9967 175 61.4434 176.473 58.67 179.42C55.8967 182.367 54.51 186.44 54.51 191.64C54.51 196.927 55.8967 201.087 58.67 204.12C61.4434 207.067 64.9967 208.54 69.33 208.54ZM168.691 155.37C175.104 155.37 180.911 156.843 186.111 159.79C191.397 162.737 195.557 166.983 198.591 172.53C201.711 177.99 203.271 184.36 203.271 191.64C203.271 198.92 201.711 205.333 198.591 210.88C195.557 216.427 191.397 220.717 186.111 223.75C180.911 226.697 175.104 228.17 168.691 228.17C159.417 228.17 152.484 225.44 147.891 219.98V227H124.361V130.54H149.061V162.65C153.827 157.797 160.371 155.37 168.691 155.37ZM163.491 208.54C167.824 208.54 171.377 207.067 174.151 204.12C176.924 201.087 178.311 196.927 178.311 191.64C178.311 186.44 176.924 182.367 174.151 179.42C171.377 176.473 167.824 175 163.491 175C159.157 175 155.604 176.473 152.831 179.42C150.057 182.367 148.671 186.44 148.671 191.64C148.671 196.927 150.057 201.087 152.831 204.12C155.604 207.067 159.157 208.54 163.491 208.54ZM238.281 164.99C240.795 161.783 244.045 159.4 248.031 157.84C252.105 156.193 256.741 155.37 261.941 155.37V177.6C259.688 177.34 257.825 177.21 256.351 177.21C251.065 177.21 246.905 178.64 243.871 181.5C240.925 184.36 239.451 188.737 239.451 194.63V227H214.751V156.54H238.281V164.99ZM345.989 156.54V227H322.459V219.98C317.866 225.44 310.933 228.17 301.659 228.17C295.246 228.17 289.396 226.697 284.109 223.75C278.909 220.717 274.749 216.427 271.629 210.88C268.596 205.333 267.079 198.92 267.079 191.64C267.079 184.36 268.596 177.99 271.629 172.53C274.749 166.983 278.909 162.737 284.109 159.79C289.396 156.843 295.246 155.37 301.659 155.37C309.979 155.37 316.523 157.797 321.289 162.65V156.54H345.989ZM306.859 208.54C311.193 208.54 314.746 207.067 317.519 204.12C320.293 201.087 321.679 196.927 321.679 191.64C321.679 186.44 320.293 182.367 317.519 179.42C314.746 176.473 311.193 175 306.859 175C302.526 175 298.973 176.473 296.199 179.42C293.426 182.367 292.039 186.44 292.039 191.64C292.039 196.927 293.426 201.087 296.199 204.12C298.973 207.067 302.526 208.54 306.859 208.54Z" fill="#1F1E1E"/>
</svg>
