<svg id="visual" viewBox="0 0 1800 1200" width="1800" height="1200" xmlns="http://www.w3.org/2000/svg" xmlns:xlink="http://www.w3.org/1999/xlink" version="1.1"><path d="M0 880L42.8 852.5C85.7 825 171.3 770 257 769.7C342.7 769.3 428.3 823.7 514 851.7C599.7 879.7 685.3 881.3 771.2 865.8C857 850.3 943 817.7 1028.8 820.3C1114.7 823 1200.3 861 1286 869.8C1371.7 878.7 1457.3 858.3 1543 840C1628.7 821.7 1714.3 805.3 1757.2 797.2L1800 789L1800 1201L1757.2 1201C1714.3 1201 1628.7 1201 1543 1201C1457.3 1201 1371.7 1201 1286 1201C1200.3 1201 1114.7 1201 1028.8 1201C943 1201 857 1201 771.2 1201C685.3 1201 599.7 1201 514 1201C428.3 1201 342.7 1201 257 1201C171.3 1201 85.7 1201 42.8 1201L0 1201Z" fill="#c2c3c7"></path><path d="M0 921L42.8 910.3C85.7 899.7 171.3 878.3 257 873.5C342.7 868.7 428.3 880.3 514 905.7C599.7 931 685.3 970 771.2 976.8C857 983.7 943 958.3 1028.8 946.5C1114.7 934.7 1200.3 936.3 1286 939.7C1371.7 943 1457.3 948 1543 958.5C1628.7 969 1714.3 985 1757.2 993L1800 1001L1800 1201L1757.2 1201C1714.3 1201 1628.7 1201 1543 1201C1457.3 1201 1371.7 1201 1286 1201C1200.3 1201 1114.7 1201 1028.8 1201C943 1201 857 1201 771.2 1201C685.3 1201 599.7 1201 514 1201C428.3 1201 342.7 1201 257 1201C171.3 1201 85.7 1201 42.8 1201L0 1201Z" fill="#6d6e72"></path><path d="M0 1053L42.8 1059C85.7 1065 171.3 1077 257 1076.2C342.7 1075.3 428.3 1061.7 514 1056.8C599.7 1052 685.3 1056 771.2 1058.8C857 1061.7 943 1063.3 1028.8 1056.7C1114.7 1050 1200.3 1035 1286 1040.2C1371.7 1045.3 1457.3 1070.7 1543 1082.2C1628.7 1093.7 1714.3 1091.3 1757.2 1090.2L1800 1089L1800 1201L1757.2 1201C1714.3 1201 1628.7 1201 1543 1201C1457.3 1201 1371.7 1201 1286 1201C1200.3 1201 1114.7 1201 1028.8 1201C943 1201 857 1201 771.2 1201C685.3 1201 599.7 1201 514 1201C428.3 1201 342.7 1201 257 1201C171.3 1201 85.7 1201 42.8 1201L0 1201Z" fill="#222328"></path></svg>