<svg id="visual" viewBox="0 0 1800 1200" width="1800" height="1200" xmlns="http://www.w3.org/2000/svg" xmlns:xlink="http://www.w3.org/1999/xlink" version="1.1"><path d="M0 902L42.8 919.2C85.7 936.3 171.3 970.7 257 952.5C342.7 934.3 428.3 863.7 514 854.7C599.7 845.7 685.3 898.3 771.2 925.5C857 952.7 943 954.3 1028.8 948C1114.7 941.7 1200.3 927.3 1286 899.5C1371.7 871.7 1457.3 830.3 1543 825.3C1628.7 820.3 1714.3 851.7 1757.2 867.3L1800 883L1800 1201L1757.2 1201C1714.3 1201 1628.7 1201 1543 1201C1457.3 1201 1371.7 1201 1286 1201C1200.3 1201 1114.7 1201 1028.8 1201C943 1201 857 1201 771.2 1201C685.3 1201 599.7 1201 514 1201C428.3 1201 342.7 1201 257 1201C171.3 1201 85.7 1201 42.8 1201L0 1201Z" fill="#f97068" stroke-linecap="round" stroke-linejoin="miter"></path></svg>