<svg id="visual" viewBox="0 0 1800 1200" width="1800" height="1200" xmlns="http://www.w3.org/2000/svg" xmlns:xlink="http://www.w3.org/1999/xlink" version="1.1"><path d="M0 951L50 946.3C100 941.7 200 932.3 300 940.5C400 948.7 500 974.3 600 976.7C700 979 800 958 900 946.3C1000 934.7 1100 932.3 1200 944.3C1300 956.3 1400 982.7 1500 986.5C1600 990.3 1700 971.7 1750 962.3L1800 953L1800 1201L1750 1201C1700 1201 1600 1201 1500 1201C1400 1201 1300 1201 1200 1201C1100 1201 1000 1201 900 1201C800 1201 700 1201 600 1201C500 1201 400 1201 300 1201C200 1201 100 1201 50 1201L0 1201Z" fill="#100f0f"></path><path d="M0 1035L50 1049.5C100 1064 200 1093 300 1093C400 1093 500 1064 600 1051.2C700 1038.3 800 1041.7 900 1053.3C1000 1065 1100 1085 1200 1087.7C1300 1090.3 1400 1075.7 1500 1064.3C1600 1053 1700 1045 1750 1041L1800 1037L1800 1201L1750 1201C1700 1201 1600 1201 1500 1201C1400 1201 1300 1201 1200 1201C1100 1201 1000 1201 900 1201C800 1201 700 1201 600 1201C500 1201 400 1201 300 1201C200 1201 100 1201 50 1201L0 1201Z" fill="#000000"></path></svg>