<svg id="visual" viewBox="0 0 1800 1200" width="1800" height="1200" xmlns="http://www.w3.org/2000/svg" xmlns:xlink="http://www.w3.org/1999/xlink" version="1.1"><path d="M0 1024L42.8 1022.5C85.7 1021 171.3 1018 257 1026.2C342.7 1034.3 428.3 1053.7 514 1056C599.7 1058.3 685.3 1043.7 771.2 1045.5C857 1047.3 943 1065.7 1028.8 1066.3C1114.7 1067 1200.3 1050 1286 1051.5C1371.7 1053 1457.3 1073 1543 1074.8C1628.7 1076.7 1714.3 1060.3 1757.2 1052.2L1800 1044L1800 1201L1757.2 1201C1714.3 1201 1628.7 1201 1543 1201C1457.3 1201 1371.7 1201 1286 1201C1200.3 1201 1114.7 1201 1028.8 1201C943 1201 857 1201 771.2 1201C685.3 1201 599.7 1201 514 1201C428.3 1201 342.7 1201 257 1201C171.3 1201 85.7 1201 42.8 1201L0 1201Z" fill="#100f0f"></path><path d="M0 1159L42.8 1152.7C85.7 1146.3 171.3 1133.7 257 1124.3C342.7 1115 428.3 1109 514 1109.2C599.7 1109.3 685.3 1115.7 771.2 1119C857 1122.3 943 1122.7 1028.8 1117.2C1114.7 1111.7 1200.3 1100.3 1286 1104.3C1371.7 1108.3 1457.3 1127.7 1543 1137.5C1628.7 1147.3 1714.3 1147.7 1757.2 1147.8L1800 1148L1800 1201L1757.2 1201C1714.3 1201 1628.7 1201 1543 1201C1457.3 1201 1371.7 1201 1286 1201C1200.3 1201 1114.7 1201 1028.8 1201C943 1201 857 1201 771.2 1201C685.3 1201 599.7 1201 514 1201C428.3 1201 342.7 1201 257 1201C171.3 1201 85.7 1201 42.8 1201L0 1201Z" fill="#000000"></path></svg>