<svg id="visual" viewBox="0 0 1800 1200" width="1800" height="1200" xmlns="http://www.w3.org/2000/svg" xmlns:xlink="http://www.w3.org/1999/xlink" version="1.1"><g><g transform="translate(217 1142)"><path d="M252.4 -77.7C284.2 15.7 237.4 139 148 204C58.6 269 -73.3 275.7 -151.1 217.1C-228.9 158.4 -252.7 34.3 -218.5 -62.5C-184.3 -159.3 -92.1 -228.9 9.1 -231.9C110.3 -234.8 220.6 -171.2 252.4 -77.7Z" fill="#a08a89"></path></g><g transform="translate(1705 269)"><path d="M168.6 -51.3C194.2 24.1 174 117.9 113.8 163.1C53.6 208.4 -46.5 205.2 -116.3 155.6C-186.1 105.9 -225.5 9.9 -201 -63.9C-176.6 -137.7 -88.3 -189.4 -8.4 -186.6C71.5 -183.9 142.9 -126.8 168.6 -51.3Z" fill="#a08a89"></path></g><g transform="translate(1156 756)"><path d="M138.8 -43.5C160.7 22.2 146 101.5 94.5 141.6C43 181.8 -45.3 182.8 -99.7 142.1C-154.1 101.5 -174.5 19 -152.3 -47.3C-130 -113.6 -65 -163.8 -3.3 -162.7C58.5 -161.7 116.9 -109.3 138.8 -43.5Z" fill="#a08a89"></path></g></g></svg>