<svg id="visual" viewBox="0 0 1500 1000" width="1500" height="1000" xmlns="http://www.w3.org/2000/svg" xmlns:xlink="http://www.w3.org/1999/xlink" version="1.1"><path d="M0 871L35.7 865.5C71.3 860 142.7 849 214.2 852.3C285.7 855.7 357.3 873.3 428.8 876.5C500.3 879.7 571.7 868.3 643 861.5C714.3 854.7 785.7 852.3 857 858.3C928.3 864.3 999.7 878.7 1071.2 882.3C1142.7 886 1214.3 879 1285.8 874.3C1357.3 869.7 1428.7 867.3 1464.3 866.2L1500 865L1500 1001L1464.3 1001C1428.7 1001 1357.3 1001 1285.8 1001C1214.3 1001 1142.7 1001 1071.2 1001C999.7 1001 928.3 1001 857 1001C785.7 1001 714.3 1001 643 1001C571.7 1001 500.3 1001 428.8 1001C357.3 1001 285.7 1001 214.2 1001C142.7 1001 71.3 1001 35.7 1001L0 1001Z" fill="#1e1d1d"></path><path d="M0 896L35.7 899.5C71.3 903 142.7 910 214.2 907.3C285.7 904.7 357.3 892.3 428.8 892.3C500.3 892.3 571.7 904.7 643 906.8C714.3 909 785.7 901 857 893.2C928.3 885.3 999.7 877.7 1071.2 879.7C1142.7 881.7 1214.3 893.3 1285.8 893.5C1357.3 893.7 1428.7 882.3 1464.3 876.7L1500 871L1500 1001L1464.3 1001C1428.7 1001 1357.3 1001 1285.8 1001C1214.3 1001 1142.7 1001 1071.2 1001C999.7 1001 928.3 1001 857 1001C785.7 1001 714.3 1001 643 1001C571.7 1001 500.3 1001 428.8 1001C357.3 1001 285.7 1001 214.2 1001C142.7 1001 71.3 1001 35.7 1001L0 1001Z" fill="#1a1a1a"></path><path d="M0 894L35.7 896C71.3 898 142.7 902 214.2 902C285.7 902 357.3 898 428.8 900.8C500.3 903.7 571.7 913.3 643 920.8C714.3 928.3 785.7 933.7 857 936.2C928.3 938.7 999.7 938.3 1071.2 930.5C1142.7 922.7 1214.3 907.3 1285.8 903C1357.3 898.7 1428.7 905.3 1464.3 908.7L1500 912L1500 1001L1464.3 1001C1428.7 1001 1357.3 1001 1285.8 1001C1214.3 1001 1142.7 1001 1071.2 1001C999.7 1001 928.3 1001 857 1001C785.7 1001 714.3 1001 643 1001C571.7 1001 500.3 1001 428.8 1001C357.3 1001 285.7 1001 214.2 1001C142.7 1001 71.3 1001 35.7 1001L0 1001Z" fill="#171717"></path><path d="M0 937L35.7 937.5C71.3 938 142.7 939 214.2 941.8C285.7 944.7 357.3 949.3 428.8 947C500.3 944.7 571.7 935.3 643 934.3C714.3 933.3 785.7 940.7 857 940.3C928.3 940 999.7 932 1071.2 934.2C1142.7 936.3 1214.3 948.7 1285.8 952.3C1357.3 956 1428.7 951 1464.3 948.5L1500 946L1500 1001L1464.3 1001C1428.7 1001 1357.3 1001 1285.8 1001C1214.3 1001 1142.7 1001 1071.2 1001C999.7 1001 928.3 1001 857 1001C785.7 1001 714.3 1001 643 1001C571.7 1001 500.3 1001 428.8 1001C357.3 1001 285.7 1001 214.2 1001C142.7 1001 71.3 1001 35.7 1001L0 1001Z" fill="#131313"></path><path d="M0 959L35.7 958.5C71.3 958 142.7 957 214.2 960.2C285.7 963.3 357.3 970.7 428.8 973.7C500.3 976.7 571.7 975.3 643 975C714.3 974.7 785.7 975.3 857 971.3C928.3 967.3 999.7 958.7 1071.2 954.5C1142.7 950.3 1214.3 950.7 1285.8 953.7C1357.3 956.7 1428.7 962.3 1464.3 965.2L1500 968L1500 1001L1464.3 1001C1428.7 1001 1357.3 1001 1285.8 1001C1214.3 1001 1142.7 1001 1071.2 1001C999.7 1001 928.3 1001 857 1001C785.7 1001 714.3 1001 643 1001C571.7 1001 500.3 1001 428.8 1001C357.3 1001 285.7 1001 214.2 1001C142.7 1001 71.3 1001 35.7 1001L0 1001Z" fill="#0f0f0f"></path></svg>