<svg id="visual" viewBox="0 0 1800 1200" width="1800" height="1200" xmlns="http://www.w3.org/2000/svg" xmlns:xlink="http://www.w3.org/1999/xlink" version="1.1"><path d="M0 866L42.8 874.5C85.7 883 171.3 900 257 902.2C342.7 904.3 428.3 891.7 514 867.2C599.7 842.7 685.3 806.3 771.2 812.3C857 818.3 943 866.7 1028.8 878C1114.7 889.3 1200.3 863.7 1286 863C1371.7 862.3 1457.3 886.7 1543 902.5C1628.7 918.3 1714.3 925.7 1757.2 929.3L1800 933L1800 1201L1757.2 1201C1714.3 1201 1628.7 1201 1543 1201C1457.3 1201 1371.7 1201 1286 1201C1200.3 1201 1114.7 1201 1028.8 1201C943 1201 857 1201 771.2 1201C685.3 1201 599.7 1201 514 1201C428.3 1201 342.7 1201 257 1201C171.3 1201 85.7 1201 42.8 1201L0 1201Z" fill="#b8acab"></path><path d="M0 958L42.8 959.2C85.7 960.3 171.3 962.7 257 974C342.7 985.3 428.3 1005.7 514 1017.7C599.7 1029.7 685.3 1033.3 771.2 1025.2C857 1017 943 997 1028.8 977.3C1114.7 957.7 1200.3 938.3 1286 948C1371.7 957.7 1457.3 996.3 1543 1004.8C1628.7 1013.3 1714.3 991.7 1757.2 980.8L1800 970L1800 1201L1757.2 1201C1714.3 1201 1628.7 1201 1543 1201C1457.3 1201 1371.7 1201 1286 1201C1200.3 1201 1114.7 1201 1028.8 1201C943 1201 857 1201 771.2 1201C685.3 1201 599.7 1201 514 1201C428.3 1201 342.7 1201 257 1201C171.3 1201 85.7 1201 42.8 1201L0 1201Z" fill="#363333"></path></svg>