<svg id="visual" viewBox="0 0 1800 1200" width="1800" height="1200" xmlns="http://www.w3.org/2000/svg" xmlns:xlink="http://www.w3.org/1999/xlink" version="1.1"><path d="M0 1030L37.5 1023.5C75 1017 150 1004 225 1002C300 1000 375 1009 450 1019.7C525 1030.3 600 1042.7 675 1041.3C750 1040 825 1025 900 1012C975 999 1050 988 1125 981.3C1200 974.7 1275 972.3 1350 977.3C1425 982.3 1500 994.7 1575 1009C1650 1023.3 1725 1039.7 1762.5 1047.8L1800 1056L1800 1201L1762.5 1201C1725 1201 1650 1201 1575 1201C1500 1201 1425 1201 1350 1201C1275 1201 1200 1201 1125 1201C1050 1201 975 1201 900 1201C825 1201 750 1201 675 1201C600 1201 525 1201 450 1201C375 1201 300 1201 225 1201C150 1201 75 1201 37.5 1201L0 1201Z" fill="#09090b" stroke-linecap="round" stroke-linejoin="miter"></path></svg>