<svg id="visual" viewBox="0 0 1800 1200" width="1800" height="1200" xmlns="http://www.w3.org/2000/svg" xmlns:xlink="http://www.w3.org/1999/xlink" version="1.1"><path d="M0 1042L37.5 1039.5C75 1037 150 1032 225 1022.3C300 1012.7 375 998.3 450 982C525 965.7 600 947.3 675 932.8C750 918.3 825 907.7 900 902.8C975 898 1050 899 1125 903.5C1200 908 1275 916 1350 937.7C1425 959.3 1500 994.7 1575 986.7C1650 978.7 1725 927.3 1762.5 901.7L1800 876L1800 1201L1762.5 1201C1725 1201 1650 1201 1575 1201C1500 1201 1425 1201 1350 1201C1275 1201 1200 1201 1125 1201C1050 1201 975 1201 900 1201C825 1201 750 1201 675 1201C600 1201 525 1201 450 1201C375 1201 300 1201 225 1201C150 1201 75 1201 37.5 1201L0 1201Z" fill="#09090b" stroke-linecap="round" stroke-linejoin="miter"></path></svg>