<svg id="visual" viewBox="0 0 1800 1200" width="1800" height="1200" xmlns="http://www.w3.org/2000/svg" xmlns:xlink="http://www.w3.org/1999/xlink" version="1.1"><path d="M0 936L17.7 941.5C35.3 947 70.7 958 106 952.2C141.3 946.3 176.7 923.7 212 928C247.3 932.3 282.7 963.7 318 980.7C353.3 997.7 388.7 1000.3 423.8 999.7C459 999 494 995 529.2 1002.7C564.3 1010.3 599.7 1029.7 635 1033.8C670.3 1038 705.7 1027 741 1021.3C776.3 1015.7 811.7 1015.3 847 1004C882.3 992.7 917.7 970.3 953 968C988.3 965.7 1023.7 983.3 1059 977.5C1094.3 971.7 1129.7 942.3 1165 932.8C1200.3 923.3 1235.7 933.7 1270.8 942.7C1306 951.7 1341 959.3 1376.2 974.2C1411.3 989 1446.7 1011 1482 1016.5C1517.3 1022 1552.7 1011 1588 993.5C1623.3 976 1658.7 952 1694 933.7C1729.3 915.3 1764.7 902.7 1782.3 896.3L1800 890L1800 1201L1782.3 1201C1764.7 1201 1729.3 1201 1694 1201C1658.7 1201 1623.3 1201 1588 1201C1552.7 1201 1517.3 1201 1482 1201C1446.7 1201 1411.3 1201 1376.2 1201C1341 1201 1306 1201 1270.8 1201C1235.7 1201 1200.3 1201 1165 1201C1129.7 1201 1094.3 1201 1059 1201C1023.7 1201 988.3 1201 953 1201C917.7 1201 882.3 1201 847 1201C811.7 1201 776.3 1201 741 1201C705.7 1201 670.3 1201 635 1201C599.7 1201 564.3 1201 529.2 1201C494 1201 459 1201 423.8 1201C388.7 1201 353.3 1201 318 1201C282.7 1201 247.3 1201 212 1201C176.7 1201 141.3 1201 106 1201C70.7 1201 35.3 1201 17.7 1201L0 1201Z" fill="#363333" stroke-linecap="round" stroke-linejoin="miter"></path></svg>