<svg id="visual" viewBox="0 0 1800 1200" width="1800" height="1200" xmlns="http://www.w3.org/2000/svg" xmlns:xlink="http://www.w3.org/1999/xlink" version="1.1"><path d="M0 753L42.8 767.7C85.7 782.3 171.3 811.7 257 830C342.7 848.3 428.3 855.7 514 845.8C599.7 836 685.3 809 771.2 815.3C857 821.7 943 861.3 1028.8 876.2C1114.7 891 1200.3 881 1286 879.2C1371.7 877.3 1457.3 883.7 1543 875.2C1628.7 866.7 1714.3 843.3 1757.2 831.7L1800 820L1800 1201L1757.2 1201C1714.3 1201 1628.7 1201 1543 1201C1457.3 1201 1371.7 1201 1286 1201C1200.3 1201 1114.7 1201 1028.8 1201C943 1201 857 1201 771.2 1201C685.3 1201 599.7 1201 514 1201C428.3 1201 342.7 1201 257 1201C171.3 1201 85.7 1201 42.8 1201L0 1201Z" fill="#b8acab"></path><path d="M0 1009L42.8 985C85.7 961 171.3 913 257 893.3C342.7 873.7 428.3 882.3 514 890.7C599.7 899 685.3 907 771.2 917.5C857 928 943 941 1028.8 940.3C1114.7 939.7 1200.3 925.3 1286 920C1371.7 914.7 1457.3 918.3 1543 923.2C1628.7 928 1714.3 934 1757.2 937L1800 940L1800 1201L1757.2 1201C1714.3 1201 1628.7 1201 1543 1201C1457.3 1201 1371.7 1201 1286 1201C1200.3 1201 1114.7 1201 1028.8 1201C943 1201 857 1201 771.2 1201C685.3 1201 599.7 1201 514 1201C428.3 1201 342.7 1201 257 1201C171.3 1201 85.7 1201 42.8 1201L0 1201Z" fill="#746c6c"></path><path d="M0 1122L42.8 1115.7C85.7 1109.3 171.3 1096.7 257 1089.3C342.7 1082 428.3 1080 514 1064.7C599.7 1049.3 685.3 1020.7 771.2 1012.3C857 1004 943 1016 1028.8 1018.3C1114.7 1020.7 1200.3 1013.3 1286 1025.2C1371.7 1037 1457.3 1068 1543 1064.7C1628.7 1061.3 1714.3 1023.7 1757.2 1004.8L1800 986L1800 1201L1757.2 1201C1714.3 1201 1628.7 1201 1543 1201C1457.3 1201 1371.7 1201 1286 1201C1200.3 1201 1114.7 1201 1028.8 1201C943 1201 857 1201 771.2 1201C685.3 1201 599.7 1201 514 1201C428.3 1201 342.7 1201 257 1201C171.3 1201 85.7 1201 42.8 1201L0 1201Z" fill="#363333"></path></svg>