<svg id="visual" viewBox="0 0 1800 1200" width="1800" height="1200" xmlns="http://www.w3.org/2000/svg" xmlns:xlink="http://www.w3.org/1999/xlink" version="1.1"><path d="M0 890L42.8 877C85.7 864 171.3 838 257 838.2C342.7 838.3 428.3 864.7 514 903.2C599.7 941.7 685.3 992.3 771.2 1013.7C857 1035 943 1027 1028.8 994.7C1114.7 962.3 1200.3 905.7 1286 883C1371.7 860.3 1457.3 871.7 1543 895.5C1628.7 919.3 1714.3 955.7 1757.2 973.8L1800 992L1800 1201L1757.2 1201C1714.3 1201 1628.7 1201 1543 1201C1457.3 1201 1371.7 1201 1286 1201C1200.3 1201 1114.7 1201 1028.8 1201C943 1201 857 1201 771.2 1201C685.3 1201 599.7 1201 514 1201C428.3 1201 342.7 1201 257 1201C171.3 1201 85.7 1201 42.8 1201L0 1201Z" fill="#887d7c" stroke-linecap="round" stroke-linejoin="miter"></path></svg>